<svg xmlns="http://www.w3.org/2000/svg" width="12" height="12" viewBox="0 0 512 512" xml:space="preserve"><circle style="fill:#2d4452" cx="256" cy="256" r="256"/><path style="fill:#233540" d="M462.42 407.36c-.916-2.816-1.992-5.564-3.364-8.148a52.1 52.1 0 0 0-4.068-10.224 52 52 0 0 0-4.068-10.224c-1.112-3.944-2.64-7.72-4.596-11.232a53.29 53.29 0 0 0-3.14-7.3 52.312 52.312 0 0 0-4.068-10.22 52.032 52.032 0 0 0-4.08-10.24 52.15 52.15 0 0 0-4.064-10.22 51.844 51.844 0 0 0-4.068-10.212 52.051 52.051 0 0 0-4.064-10.22 52.007 52.007 0 0 0-4.072-10.24 52.112 52.112 0 0 0-4.072-10.224c-1.108-3.948-2.636-7.724-4.588-11.24-.88-2.524-1.916-4.964-3.144-7.292-1.008-3.58-2.364-7-4.072-10.232a52.36 52.36 0 0 0-4.072-10.224 52.18 52.18 0 0 0-4.06-10.208 51.906 51.906 0 0 0-4.084-10.252 52.228 52.228 0 0 0-4.064-10.212 51.648 51.648 0 0 0-4.068-10.212 52.007 52.007 0 0 0-4.072-10.24c-1.112-3.952-2.636-7.736-4.596-11.252a52.82 52.82 0 0 0-3.136-7.264 52.015 52.015 0 0 0-4.064-10.216 52.177 52.177 0 0 0-4.072-10.248 51.633 51.633 0 0 0-4.076-10.224 52.023 52.023 0 0 0-5.368-12.496c-7.98-18.928-26.712-32.224-48.548-32.224-.488 0-.96.06-1.444.076-8.836-16.692-26.356-28.076-46.556-28.076-1.34 0-2.66.068-3.976.16-.084.008-.164-.624-.252-.616-1.252.092-2.504-.212-3.74-.212h-.012c-15.68 0-29.068 11.5-36.992 24.524-4.08-1.988-8.468-.524-13.044-4.524h-.032c-1.572 0-3.144.28-4.756.116-1.708-.196-3.436.124-5.2.124-1.416 0-2.8.272-4.184.392-23.484 1.852-42.64 19.208-47.36 41.764-9.276 7.092-15.288 18.296-15.288 30.884 0 2.312.272 4.552.66 6.752.592 6.08 2.432 11.684 5.468 16.564.26.812.532 1.612.848 2.404a42.476 42.476 0 0 0 2.664 6 39.2 39.2 0 0 0 1.468 4.404 43.294 43.294 0 0 0 2.544 5.752c.416 1.6.94 3.156 1.564 4.664a43.17 43.17 0 0 0 2.584 5.82c.104.416.24.82.364 1.232v85.304c-11.048 0-20 8.952-20 20 0 1.688.276 3.296.672 4.864.092.676.248 1.332.416 1.984.476 3.28 1.792 6.28 3.716 8.852.084.476.244.92.36 1.388.476 3.272 1.792 6.268 3.708 8.836.084.48.248.932.364 1.408.48 3.26 1.792 6.252 3.712 8.824.084.484.244.936.364 1.416.48 3.256 1.788 6.248 3.704 8.8.084.496.248.964.368 1.444.48 3.252 1.796 6.228 3.704 8.776.544 3.08 1.852 5.88 3.66 8.304.084.464.244.908.352 1.356.48 3.288 1.796 6.296 3.724 8.876.084.472.24.916.36 1.388.476 3.268 1.792 6.264 3.704 8.832.084.488.252.944.368 1.416.48 3.26 1.796 6.248 3.708 8.804.084.484.244.94.364 1.416.48 3.256 1.792 6.248 3.708 8.808.084.488.248.94.364 1.416.476 3.256 1.792 6.248 3.708 8.804.084.492.248.952.368 1.432.472 3.252 1.788 6.232 3.708 8.788.084.492.24.96.364 1.44.476 3.252 1.792 6.224 3.708 8.78.084.5.244.972.368 1.456.476 3.244 1.788 6.212 3.704 8.76.54 3.072 1.848 5.872 3.66 8.3.084.484.244.936.364 1.416.48 3.26 1.792 6.252 3.708 8.808.084.484.244.936.36 1.412.44 3.016 1.62 5.772 3.3 8.208A254.21 254.21 0 0 0 256 512c84.744 0 159.832-41.204 206.42-104.64z"/><path style="fill:#ffd464" d="M336 408c0 8.8-7.2 16-16 16H176c-8.8 0-16-7.2-16-16V196c0-8.8 7.2-16 16-16h144c8.8 0 16 7.2 16 16v212z"/><path style="fill:#ffd464" d="M368 340h-48V224h48c13.236 0 24 10.764 24 24v68c0 13.236-10.764 24-24 24zm-32-16h32c4.412 0 8-3.588 8-8v-68c0-4.412-3.588-8-8-8h-32v84z"/><path style="fill:#f2c95f" d="M328 240h8v84h-8zM368 224h-8c13.236 0 24 10.764 24 24v68c0 13.236-10.764 24-24 24h8c13.236 0 24-10.764 24-24v-68c0-13.236-10.764-24-24-24z"/><path style="fill:#f2c95f" d="M320 180h-12c8.8 0 16 7.2 16 16v212c0 8.8-7.2 16-16 16h12c8.8 0 16-7.2 16-16V196c0-8.8-7.2-16-16-16z"/><path style="fill:#cc803d" d="M184 352c-4.416 0-8-3.584-8-8V236c0-4.416 3.584-8 8-8s8 3.584 8 8v108c0 4.416-3.584 8-8 8zM216 352c-4.416 0-8-3.584-8-8V236c0-4.416 3.584-8 8-8s8 3.584 8 8v108c0 4.416-3.584 8-8 8zM312 352c-4.416 0-8-3.584-8-8V236c0-4.416 3.584-8 8-8s8 3.584 8 8v108c0 4.416-3.584 8-8 8zM248 352c-4.416 0-8-3.584-8-8V236c0-4.416 3.584-8 8-8s8 3.584 8 8v108c0 4.416-3.584 8-8 8zM280 352c-4.416 0-8-3.584-8-8V236c0-4.416 3.584-8 8-8s8 3.584 8 8v108c0 4.416-3.584 8-8 8z"/><path style="fill:#f5f5f5" d="M160 192h-20v116.164c-11.048 0-20 8.952-20 20s8.952 20 20 20 20-8.952 20-20c0-.056-.016-.108-.016-.164H160V192z"/><path style="fill:#e6e6e6" d="M160 192h-8v136h-.016c0 .056.016.108.016.164 0 9.676-6.872 17.744-16 19.596 1.292.256 2.628.404 4 .404 11.048 0 20-8.952 20-20 0-.056-.016-.108-.016-.164H160V192z"/><path style="fill:#f5f5f5" d="M304.668 104.668c-.488 0-.96.06-1.444.076-8.836-16.688-26.356-28.076-46.556-28.076-19.076 0-35.728 10.176-44.968 25.36-6.964-3.4-14.756-5.36-23.032-5.36-25.372 0-46.548 17.948-51.544 41.836-9.276 7.096-15.288 18.252-15.288 30.832 0 21.444 17.388 38.832 38.832 38.832a38.597 38.597 0 0 0 21.632-6.584c2.088.252 4.208.416 6.368.416 2.072 0 4.1-.148 6.108-.388 9.16 7.72 20.976 12.388 33.892 12.388 15.976 0 30.256-7.14 39.916-18.372C278.008 204.516 290.68 210 304.668 210c29.084 0 52.668-23.584 52.668-52.668s-23.584-52.664-52.668-52.664z"/><path style="fill:#e6e6e6" d="M304.668 104.668c-.488 0-.96.06-1.444.076-8.836-16.688-26.356-28.076-46.556-28.076a53.43 53.43 0 0 0-7.976.624c16.752 2.568 30.896 13.016 38.532 27.448.484-.016.956-.08 1.444-.08 29.084 0 52.668 23.584 52.668 52.668 0 26.36-19.392 48.136-44.672 51.996 2.612.408 5.272.672 8.004.672 29.084 0 52.668-23.584 52.668-52.668s-23.584-52.66-52.668-52.66zM195.7 102.028c.916-1.492 1.916-2.916 2.956-4.308-3.248-.64-6.564-1.052-9.988-1.052-2.776 0-5.496.252-8.16.668 5.364.82 10.48 2.392 15.192 4.692zM259.68 188.876c-8.032 9.336-26.372 22.532-39.108 24.464 2.644.412 5.34.664 8.096.664 16.332 0 31.956-8.068 39.956-18.38-3.208-1.948-6.224-4.188-8.944-6.748z"/></svg>
